<svg width="97" height="38" viewBox="0 0 97 38" fill="none" xmlns="http://www.w3.org/2000/svg">
<path d="M31.5684 13.0469L34.125 20.2656L36.668 13.0469H39.3613V23H37.3037V20.2793L37.5088 15.583L34.8223 23H33.4141L30.7344 15.5898L30.9395 20.2793V23H28.8887V13.0469H31.5684ZM47.1406 18.6865H43.2031V21.3525H47.8242V23H41.1523V13.0469H47.8105V14.708H43.2031V17.0801H47.1406V18.6865ZM57.1211 23H55.0703L51.0781 16.4512V23H49.0273V13.0469H51.0781L55.0771 19.6094V13.0469H57.1211V23ZM66.4453 13.0469V19.6025C66.4453 20.6917 66.1035 21.5531 65.4199 22.1865C64.7409 22.82 63.8112 23.1367 62.6309 23.1367C61.4688 23.1367 60.5459 22.8291 59.8623 22.2139C59.1787 21.5986 58.8301 20.7533 58.8164 19.6777V13.0469H60.8672V19.6162C60.8672 20.2679 61.0221 20.7441 61.332 21.0449C61.6465 21.3411 62.0794 21.4893 62.6309 21.4893C63.7839 21.4893 64.3695 20.8831 64.3877 19.6709V13.0469H66.4453Z" fill="#EF536F" fill-opacity="0.9"/>
<rect x="0.732558" y="0.732558" width="95.5349" height="36.5349" rx="10.2558" stroke="#EF536F" stroke-opacity="0.9" stroke-width="1.46512"/>
</svg>
