<svg width="27" height="27" viewBox="0 0 27 27" fill="none" xmlns="http://www.w3.org/2000/svg">
<g clip-path="url(#clip0)">
<path d="M5.94999 9.44044L4.96448 10.0878L15.2281 25.7596L16.2136 25.1123L5.94999 9.44044Z" fill="#E6E6E6"/>
<path d="M3.60377 3.54264L5.88393 7.0243C5.92808 7.09172 5.94369 7.17395 5.9273 7.25289C5.91092 7.33184 5.8639 7.40103 5.79657 7.44525C5.72925 7.48947 5.64714 7.5051 5.56831 7.48869C5.48949 7.47228 5.4204 7.42519 5.37624 7.35777L2.75492 3.35518C2.39912 3.32542 2.04149 3.38424 1.71387 3.52641L4.56991 7.88739C4.61404 7.95482 4.62962 8.03703 4.61323 8.11596C4.59684 8.19488 4.54982 8.26406 4.4825 8.30827C4.41519 8.35248 4.33311 8.36811 4.25429 8.35172C4.17548 8.33533 4.10639 8.28826 4.06222 8.22087L1.20618 3.85988C0.945453 4.10416 0.749089 4.40923 0.634577 4.74791L3.25589 8.7505C3.30002 8.81792 3.3156 8.90013 3.29921 8.97906C3.28282 9.05799 3.2358 9.12716 3.16849 9.17137C3.10118 9.21559 3.01909 9.23121 2.94027 9.21482C2.86146 9.19843 2.79237 9.15136 2.7482 9.08397L0.468047 5.60231C0.409483 6.57308 0.725527 7.7237 1.41817 8.78132C2.70546 10.7469 4.80529 11.6466 6.10828 10.7907C7.41126 9.93488 7.42398 7.64762 6.13668 5.682C5.44405 4.62439 4.51618 3.87563 3.60377 3.54264Z" fill="#E6E6E6"/>
<path d="M10.3687 7.29651H9.19012V26.0384H10.3687V7.29651Z" fill="#E6E6E6"/>
<path d="M9.76155 8.51256C11.3198 8.51256 12.583 6.60696 12.583 4.25628C12.583 1.9056 11.3198 0 9.76155 0C8.20332 0 6.94012 1.9056 6.94012 4.25628C6.94012 6.60696 8.20332 8.51256 9.76155 8.51256Z" fill="#E6E6E6"/>
<path d="M9.76155 7.75827C11.0436 7.75827 12.083 6.19037 12.083 4.25627C12.083 2.32217 11.0436 0.754272 9.76155 0.754272C8.47946 0.754272 7.44012 2.32217 7.44012 4.25627C7.44012 6.19037 8.47946 7.75827 9.76155 7.75827Z" fill="#CCCCCC"/>
<path d="M13.0472 27C20.2269 27 26.0472 26.6655 26.0472 26.253C26.0472 25.8404 20.2269 25.506 13.0472 25.506C5.86754 25.506 0.0472412 25.8404 0.0472412 26.253C0.0472412 26.6655 5.86754 27 13.0472 27Z" fill="#E6E6E6"/>
<path d="M20.7354 26.242C15.8635 25.3626 10.8739 25.3626 6.00201 26.242C5.92462 26.2561 5.84509 26.2529 5.76905 26.2329C5.693 26.2128 5.62229 26.1762 5.56189 26.1257C5.5015 26.0753 5.4529 26.0122 5.41952 25.9408C5.38614 25.8695 5.3688 25.7917 5.36871 25.713V19.0281H21.3687V25.713C21.3686 25.7917 21.3513 25.8695 21.3179 25.9408C21.2845 26.0122 21.2359 26.0753 21.1755 26.1257C21.1151 26.1762 21.0444 26.2128 20.9684 26.2329C20.8923 26.2529 20.8128 26.2561 20.7354 26.242Z" fill="#F9A826"/>
<path d="M19.9044 14.0922C19.5349 14.0919 19.168 14.1534 18.8188 14.2741C18.3095 13.1678 17.4956 12.2298 16.4727 11.5704C15.4498 10.911 14.2603 10.5575 13.0438 10.5514C11.8273 10.5452 10.6343 10.8867 9.6048 11.5357C8.57529 12.1847 7.75199 13.1143 7.23152 14.2155C6.71901 14.0715 6.17946 14.053 5.65832 14.1615C5.13717 14.27 4.6497 14.5023 4.23695 14.8389C3.8242 15.1755 3.49828 15.6065 3.28663 16.0957C3.07498 16.5848 2.9838 17.1177 3.02078 17.6495C3.05776 18.1813 3.22181 18.6963 3.49912 19.1514C3.77642 19.6064 4.15886 19.988 4.61421 20.2641C5.06956 20.5401 5.58449 20.7025 6.11562 20.7376C6.64675 20.7728 7.17853 20.6795 7.66616 20.4658C8.25224 21.3602 9.05275 22.0933 9.99457 22.5981C10.9364 23.1029 11.9895 23.3634 13.0577 23.3557C14.1259 23.348 15.1752 23.0724 16.1096 22.554C17.0441 22.0357 17.834 21.2911 18.4072 20.3884C18.855 20.6148 19.3481 20.7367 19.8497 20.7449C20.3513 20.7531 20.8482 20.6475 21.3031 20.4359C21.7581 20.2243 22.1593 19.9123 22.4766 19.5232C22.794 19.1341 23.0192 18.6781 23.1354 18.1894C23.2516 17.7007 23.2558 17.192 23.1476 16.7015C23.0395 16.2109 22.8218 15.7513 22.5109 15.357C22.2 14.9628 21.8039 14.6442 21.3525 14.4251C20.9011 14.2061 20.406 14.0922 19.9044 14.0922Z" fill="#F9A826"/>
<path d="M6.6544 16.9536H6.58297C6.58053 16.0012 6.791 15.0604 7.19893 14.2001L7.26349 14.2307C6.86009 15.0814 6.65197 16.0118 6.6544 16.9536Z" fill="#3F3D56"/>
<path d="M19.4401 16.9536H19.3687C19.3709 16.0335 19.1723 15.124 18.7867 14.2889L18.8516 14.2589C19.2415 15.1035 19.4423 16.0231 19.4401 16.9536Z" fill="#3F3D56"/>
<path d="M5.37728 22.1387L5.36005 22.0692C5.38021 22.0643 7.41016 21.5649 10.3851 21.3172C13.1308 21.0886 17.2667 21.0334 21.3774 22.0693L21.3599 22.1387C17.2594 21.1054 13.1325 21.1603 10.3925 21.3884C7.42291 21.6356 5.39738 22.1337 5.37728 22.1387Z" fill="#3F3D56"/>
<path d="M5.37728 23.1045L5.36005 23.0351C5.38021 23.0301 7.41016 22.5308 10.3851 22.283C13.1308 22.0544 17.2667 21.9992 21.3774 23.0351L21.3599 23.1045C17.2594 22.0712 13.1325 22.1262 10.3925 22.3542C7.42291 22.6014 5.39738 23.0995 5.37728 23.1045Z" fill="#3F3D56"/>
<path d="M5.37728 24.0702L5.36005 24.0008C5.38021 23.9958 7.41016 23.4965 10.3851 23.2487C13.1308 23.0201 17.2667 22.9649 21.3774 24.0008L21.3599 24.0702C17.2594 23.0369 13.1325 23.0918 10.3925 23.3199C7.42291 23.5671 5.39738 24.0652 5.37728 24.0702Z" fill="#3F3D56"/>
<path d="M18.5211 18.8191L17.6557 18.5244L18.4865 14.2779L17.9153 14.2259C17.3584 14.6538 16.6167 14.8215 15.6654 14.6938L17.1884 16.9991L16.4118 17.5481L13.9344 14.5721C13.8227 14.438 13.7615 14.2689 13.7615 14.0942C13.7615 13.9323 13.8141 13.7748 13.9113 13.6454C14.0085 13.5161 14.1451 13.4219 14.3005 13.3771L16.9461 12.6139L20.0441 12.9606C20.5125 13.6757 20.5308 14.173 19.8178 14.3165L18.5211 18.8191Z" fill="#2F2E41"/>
<path d="M17.6353 20.471C17.5459 20.4654 17.459 20.4386 17.3818 20.393C17.3046 20.3474 17.2392 20.2842 17.191 20.2086C17.1427 20.1329 17.113 20.047 17.1042 19.9576C17.0953 19.8683 17.1076 19.7782 17.1401 19.6945L17.5703 18.5866C17.7889 18.172 18.0888 18.2239 18.4429 18.5866L18.616 19.095C18.6303 19.1369 18.6359 19.1812 18.6326 19.2253C18.6294 19.2694 18.6172 19.3124 18.5969 19.3517L18.1776 20.1636C18.1267 20.262 18.0484 20.3435 17.9521 20.3981C17.8558 20.4527 17.7458 20.478 17.6353 20.471Z" fill="#2F2E41"/>
<path d="M16.517 19.0202C16.4275 19.0146 16.3407 18.9878 16.2635 18.9423C16.1863 18.8967 16.1209 18.8335 16.0726 18.7578C16.0244 18.6822 15.9946 18.5962 15.9858 18.5068C15.977 18.4175 15.9893 18.3274 16.0218 18.2437L16.452 17.1358C16.6705 16.7212 16.9704 16.7731 17.3246 17.1358L17.4977 17.6442C17.5119 17.6861 17.5176 17.7304 17.5143 17.7745C17.511 17.8186 17.4989 17.8616 17.4786 17.9009L17.0592 18.7128C17.0084 18.8112 16.9301 18.8927 16.8338 18.9473C16.7375 19.0019 16.6274 19.0272 16.517 19.0202Z" fill="#2F2E41"/>
<path d="M17.0672 8.55799C17.6025 8.55799 18.0365 8.12342 18.0365 7.58735C18.0365 7.05127 17.6025 6.6167 17.0672 6.6167C16.532 6.6167 16.098 7.05127 16.098 7.58735C16.098 8.12342 16.532 8.55799 17.0672 8.55799Z" fill="#FFB9B9"/>
<path d="M18.573 8.95662L17.2403 9.64992L16.9634 8.40194L17.8807 7.82996L18.573 8.95662Z" fill="#FFB9B9"/>
<path d="M20.1826 13.1338C18.8528 12.7315 17.6462 12.5231 16.773 12.8391C17.074 11.9911 16.5185 10.6963 15.9077 9.37253C16.1712 9.02749 16.5914 8.89384 17.0672 8.83521C17.5879 9.21378 17.9509 8.9708 18.2268 8.38455C18.8288 8.36035 19.4088 8.57382 19.9749 8.9392C19.5324 10.3587 19.612 11.7564 20.1826 13.1338Z" fill="#3F3D56"/>
<path d="M16.7557 13.0471C16.5457 13.1711 16.3519 13.3799 16.1672 13.6365C15.8552 13.4451 15.5805 13.2273 15.3642 12.9682C15.2127 12.7845 15.1095 12.5659 15.0638 12.3321C15.018 12.0983 15.0313 11.8568 15.1024 11.6295L15.6938 9.70446C15.7429 9.54457 15.8384 9.4029 15.968 9.29741L16.0461 9.23389L16.8249 10.7072L16.0461 12.1632C16.1449 12.4284 16.4359 12.7347 16.7557 13.0471Z" fill="#3F3D56"/>
<path d="M17.0238 14.5149C16.9532 14.5472 16.8761 14.5625 16.7985 14.5597C16.7209 14.557 16.6451 14.5362 16.577 14.499C16.5088 14.4618 16.4503 14.4092 16.4059 14.3454C16.3616 14.2817 16.3326 14.2084 16.3214 14.1315L16.1927 13.249L16.6427 13.0063L17.2138 13.7551C17.2594 13.8149 17.291 13.8842 17.3062 13.9579C17.3213 14.0316 17.3198 14.1078 17.3015 14.1808C17.2832 14.2538 17.2488 14.3218 17.2007 14.3796C17.1526 14.4375 17.0922 14.4837 17.0238 14.5149Z" fill="#FFB9B9"/>
<path d="M18.0451 7.54483L17.8796 7.54975L17.4206 6.89853C16.8324 6.95943 16.3504 7.21536 15.9425 7.60738L15.9012 7.33127C15.8617 7.06796 15.9245 6.79953 16.0767 6.58119C16.2288 6.36285 16.4587 6.2112 16.7191 6.15743H16.7191C16.8559 6.12919 16.9969 6.12884 17.1338 6.1564C17.2707 6.18396 17.4007 6.23887 17.5159 6.31785C17.6312 6.39683 17.7294 6.49825 17.8046 6.61607C17.8798 6.73389 17.9306 6.86568 17.9538 7.00358L18.0451 7.54483Z" fill="#2F2E41"/>
<path d="M16.1839 13.6369C16.1517 13.5662 16.1364 13.4889 16.1392 13.4113C16.1419 13.3336 16.1627 13.2576 16.1998 13.1894C16.237 13.1212 16.2895 13.0625 16.3531 13.0181C16.4168 12.9737 16.4899 12.9447 16.5667 12.9335L17.448 12.8046L17.6903 13.2552L16.9426 13.8272C16.8829 13.8729 16.8137 13.9045 16.7401 13.9197C16.6665 13.9349 16.5904 13.9333 16.5175 13.915C16.4446 13.8967 16.3768 13.8622 16.319 13.8141C16.2613 13.7659 16.2151 13.7054 16.1839 13.6369Z" fill="#FFB9B9"/>
<path d="M20.3504 12.834C19.512 12.8992 18.5966 13.161 17.6383 13.5324C17.6264 13.2476 17.5233 12.9741 17.3441 12.7525C18.2145 12.5229 19.0043 12.2535 19.4902 11.8338L19.196 9.61519L19.8364 8.88721L19.9468 8.94492C20.0386 8.99266 20.1193 9.05918 20.1837 9.14016C20.2481 9.22115 20.2948 9.31479 20.3207 9.41502C20.5911 10.4683 20.7112 11.4775 20.6287 12.4272C20.6393 12.5173 20.617 12.6081 20.5658 12.683C20.5147 12.7578 20.4381 12.8114 20.3504 12.834Z" fill="#3F3D56"/>
<path d="M3.47176 26.0424C2.69203 26.5308 1.9123 26.5306 1.13257 26.0417C1.10789 26.0265 1.08784 26.0048 1.07461 25.979C1.06138 25.9532 1.05547 25.9242 1.05753 25.8952L1.30083 22.7277H3.2687L3.54666 25.8941C3.54906 25.9233 3.54334 25.9527 3.53011 25.9788C3.51689 26.005 3.4967 26.027 3.47176 26.0424Z" fill="#3F3D56"/>
<path d="M2.27567 23.1218C2.82409 23.1218 3.26868 22.9614 3.26868 22.7635C3.26868 22.5656 2.82409 22.4052 2.27567 22.4052C1.72724 22.4052 1.28265 22.5656 1.28265 22.7635C1.28265 22.9614 1.72724 23.1218 2.27567 23.1218Z" fill="#3F3D56"/>
<path d="M3.05401 22.6425C2.53657 23.0071 2.03566 23.0071 1.55127 22.6425V22.0692H3.05401V22.6425Z" fill="#F9A826"/>
<path d="M2.30264 22.3559C2.71761 22.3559 3.05401 22.2276 3.05401 22.0693C3.05401 21.9109 2.71761 21.7826 2.30264 21.7826C1.88767 21.7826 1.55127 21.9109 1.55127 22.0693C1.55127 22.2276 1.88767 22.3559 2.30264 22.3559Z" fill="#F9A826"/>
<path d="M2.33841 22.0692C2.37793 22.0692 2.40996 22.0532 2.40996 22.0334C2.40996 22.0136 2.37793 21.9976 2.33841 21.9976C2.29888 21.9976 2.26685 22.0136 2.26685 22.0334C2.26685 22.0532 2.29888 22.0692 2.33841 22.0692Z" fill="#E6E6E6"/>
<path d="M2.6763 22.0692C2.71582 22.0692 2.74785 22.0532 2.74785 22.0334C2.74785 22.0136 2.71582 21.9976 2.6763 21.9976C2.63677 21.9976 2.60474 22.0136 2.60474 22.0334C2.60474 22.0532 2.63677 22.0692 2.6763 22.0692Z" fill="#E6E6E6"/>
<path d="M2.50735 22.1538C2.54687 22.1538 2.57891 22.1378 2.57891 22.118C2.57891 22.0982 2.54687 22.0822 2.50735 22.0822C2.46783 22.0822 2.43579 22.0982 2.43579 22.118C2.43579 22.1378 2.46783 22.1538 2.50735 22.1538Z" fill="#E6E6E6"/>
<path d="M1.83157 22.1538C1.87109 22.1538 1.90313 22.1378 1.90313 22.118C1.90313 22.0982 1.87109 22.0822 1.83157 22.0822C1.79205 22.0822 1.76001 22.0982 1.76001 22.118C1.76001 22.1378 1.79205 22.1538 1.83157 22.1538Z" fill="#E6E6E6"/>
<path d="M2.00051 22.0692C2.04003 22.0692 2.07207 22.0532 2.07207 22.0334C2.07207 22.0136 2.04003 21.9976 2.00051 21.9976C1.96099 21.9976 1.92896 22.0136 1.92896 22.0334C1.92896 22.0532 1.96099 22.0692 2.00051 22.0692Z" fill="#E6E6E6"/>
<path d="M2.16946 22.1962C2.20898 22.1962 2.24102 22.1801 2.24102 22.1603C2.24102 22.1406 2.20898 22.1245 2.16946 22.1245C2.12994 22.1245 2.0979 22.1406 2.0979 22.1603C2.0979 22.1801 2.12994 22.1962 2.16946 22.1962Z" fill="#E6E6E6"/>
<path d="M25.0789 26.0424C24.2992 26.5308 23.5194 26.5306 22.7397 26.0417C22.715 26.0265 22.695 26.0048 22.6817 25.979C22.6685 25.9532 22.6626 25.9242 22.6646 25.8952L22.9079 22.7277H24.8758L25.1538 25.8941C25.1562 25.9233 25.1505 25.9527 25.1372 25.9788C25.124 26.005 25.1038 26.027 25.0789 26.0424Z" fill="#3F3D56"/>
<path d="M23.8828 23.1218C24.4313 23.1218 24.8759 22.9614 24.8759 22.7635C24.8759 22.5656 24.4313 22.4052 23.8828 22.4052C23.3344 22.4052 22.8898 22.5656 22.8898 22.7635C22.8898 22.9614 23.3344 23.1218 23.8828 23.1218Z" fill="#3F3D56"/>
<path d="M24.6611 22.6425C24.1437 23.0071 23.6428 23.0071 23.1584 22.6425V22.0692H24.6611V22.6425Z" fill="#F9A826"/>
<path d="M23.9098 22.3559C24.3247 22.3559 24.6611 22.2276 24.6611 22.0693C24.6611 21.9109 24.3247 21.7826 23.9098 21.7826C23.4948 21.7826 23.1584 21.9109 23.1584 22.0693C23.1584 22.2276 23.4948 22.3559 23.9098 22.3559Z" fill="#F9A826"/>
<path d="M23.9456 22.0692C23.9851 22.0692 24.0171 22.0532 24.0171 22.0334C24.0171 22.0136 23.9851 21.9976 23.9456 21.9976C23.9061 21.9976 23.874 22.0136 23.874 22.0334C23.874 22.0532 23.9061 22.0692 23.9456 22.0692Z" fill="#E6E6E6"/>
<path d="M24.2834 22.0692C24.3229 22.0692 24.355 22.0532 24.355 22.0334C24.355 22.0136 24.3229 21.9976 24.2834 21.9976C24.2439 21.9976 24.2119 22.0136 24.2119 22.0334C24.2119 22.0532 24.2439 22.0692 24.2834 22.0692Z" fill="#E6E6E6"/>
<path d="M24.1145 22.1538C24.154 22.1538 24.1861 22.1378 24.1861 22.118C24.1861 22.0982 24.154 22.0822 24.1145 22.0822C24.075 22.0822 24.043 22.0982 24.043 22.118C24.043 22.1378 24.075 22.1538 24.1145 22.1538Z" fill="#E6E6E6"/>
<path d="M23.4387 22.1538C23.4783 22.1538 23.5103 22.1378 23.5103 22.118C23.5103 22.0982 23.4783 22.0822 23.4387 22.0822C23.3992 22.0822 23.3672 22.0982 23.3672 22.118C23.3672 22.1378 23.3992 22.1538 23.4387 22.1538Z" fill="#E6E6E6"/>
<path d="M23.6077 22.0692C23.6472 22.0692 23.6793 22.0532 23.6793 22.0334C23.6793 22.0136 23.6472 21.9976 23.6077 21.9976C23.5682 21.9976 23.5361 22.0136 23.5361 22.0334C23.5361 22.0532 23.5682 22.0692 23.6077 22.0692Z" fill="#E6E6E6"/>
<path d="M23.7766 22.1962C23.8161 22.1962 23.8481 22.1801 23.8481 22.1603C23.8481 22.1406 23.8161 22.1245 23.7766 22.1245C23.7371 22.1245 23.705 22.1406 23.705 22.1603C23.705 22.1801 23.7371 22.1962 23.7766 22.1962Z" fill="#E6E6E6"/>
</g>
<defs>
<clipPath id="clip0">
<rect width="26" height="27" fill="white" transform="translate(0.0472412)"/>
</clipPath>
</defs>
</svg>
