<svg width="90" height="39" viewBox="0 0 90 39" fill="none" xmlns="http://www.w3.org/2000/svg">
<path d="M2.84052 32.6785V21.132H0.737797V19.3736H2.84052V18.0087C2.84052 16.5823 3.22171 15.4797 3.9841 14.7009C4.74649 13.9221 5.8245 13.5327 7.21811 13.5327C7.74277 13.5327 8.26333 13.6024 8.77979 13.7417L8.65682 15.5862C8.27153 15.5124 7.86164 15.4756 7.42716 15.4756C6.68936 15.4756 6.11962 15.6928 5.71793 16.1273C5.31624 16.5536 5.11539 17.1684 5.11539 17.9718V19.3736H7.95591V21.132H5.11539V32.6785H2.84052ZM18.6909 32.6785C18.5597 32.4162 18.4531 31.9489 18.3711 31.2767C17.3136 32.3752 16.0512 32.9245 14.5838 32.9245C13.2721 32.9245 12.1941 32.5556 11.3498 31.8178C10.5136 31.0718 10.0955 30.129 10.0955 28.9895C10.0955 27.6041 10.6202 26.5302 11.6695 25.7678C12.727 24.9972 14.2108 24.6119 16.1209 24.6119H18.3343V23.5667C18.3343 22.7716 18.0965 22.1403 17.6211 21.6731C17.1456 21.1976 16.4447 20.9599 15.5183 20.9599C14.7068 20.9599 14.0263 21.1648 13.4771 21.5747C12.9278 21.9846 12.6532 22.4805 12.6532 23.0626H10.366C10.366 22.3986 10.5997 21.7591 11.067 21.1443C11.5424 20.5213 12.1818 20.0294 12.9852 19.6687C13.7968 19.308 14.6863 19.1277 15.6536 19.1277C17.1866 19.1277 18.3875 19.5129 19.2565 20.2835C20.1255 21.0459 20.5763 22.0993 20.6091 23.4438V29.5675C20.6091 30.7889 20.7649 31.7604 21.0764 32.4818V32.6785H18.6909ZM14.9158 30.9447C15.629 30.9447 16.3053 30.7603 16.9447 30.3914C17.5842 30.0225 18.0473 29.5429 18.3343 28.9527V26.2228H16.5512C13.764 26.2228 12.3704 27.0385 12.3704 28.6698C12.3704 29.383 12.6081 29.9405 13.0836 30.3422C13.5591 30.7439 14.1698 30.9447 14.9158 30.9447ZM31.922 29.1494C31.922 28.5346 31.6884 28.0591 31.2211 27.723C30.762 27.3787 29.9546 27.0836 28.7987 26.8376C27.651 26.5917 26.7369 26.2966 26.0565 25.9523C25.3843 25.608 24.8843 25.1981 24.5563 24.7226C24.2366 24.2471 24.0768 23.6815 24.0768 23.0257C24.0768 21.9354 24.5359 21.0131 25.454 20.2589C26.3803 19.5048 27.5608 19.1277 28.9954 19.1277C30.5038 19.1277 31.7253 19.517 32.6598 20.2958C33.6026 21.0746 34.0739 22.0706 34.0739 23.2839H31.7868C31.7868 22.6609 31.5203 22.1239 30.9875 21.6731C30.4628 21.2222 29.7988 20.9967 28.9954 20.9967C28.1675 20.9967 27.5198 21.1771 27.0526 21.5378C26.5853 21.8985 26.3517 22.3699 26.3517 22.9519C26.3517 23.5012 26.5689 23.9151 27.0034 24.1939C27.4379 24.4726 28.2207 24.739 29.352 24.9931C30.4915 25.2473 31.4138 25.5506 32.1188 25.9031C32.8238 26.2556 33.3443 26.6819 33.6804 27.1819C34.0247 27.6738 34.1969 28.2763 34.1969 28.9895C34.1969 30.1782 33.7214 31.1333 32.7705 31.8547C31.8195 32.5679 30.5858 32.9245 29.0692 32.9245C28.0035 32.9245 27.0608 32.7359 26.241 32.3588C25.4212 31.9817 24.7777 31.4571 24.3104 30.7848C23.8513 30.1044 23.6218 29.3707 23.6218 28.5838H25.8967C25.9377 29.3461 26.241 29.9528 26.8066 30.4037C27.3805 30.8463 28.1347 31.0677 29.0692 31.0677C29.93 31.0677 30.6186 30.8955 31.135 30.5512C31.6597 30.1987 31.922 29.7314 31.922 29.1494ZM40.2468 16.1519V19.3736H42.7307V21.132H40.2468V29.383C40.2468 29.9159 40.3575 30.3176 40.5788 30.5881C40.8002 30.8504 41.1773 30.9816 41.7101 30.9816C41.9725 30.9816 42.3332 30.9324 42.7922 30.834V32.6785C42.1938 32.8425 41.6118 32.9245 41.0461 32.9245C40.0296 32.9245 39.2631 32.617 38.7466 32.0022C38.2302 31.3874 37.972 30.5143 37.972 29.383V21.132H35.5495V19.3736H37.972V16.1519H40.2468ZM48.1167 25.6695V32.6785H45.7557V14.7747H52.359C54.3183 14.7747 55.8512 15.2747 56.9579 16.2748C58.0728 17.275 58.6303 18.5989 58.6303 20.2466C58.6303 21.9846 58.0851 23.3249 56.9948 24.2676C55.9127 25.2022 54.3592 25.6695 52.3344 25.6695H48.1167ZM48.1167 23.7389H52.359C53.6215 23.7389 54.5888 23.4438 55.261 22.8535C55.9332 22.2551 56.2693 21.3943 56.2693 20.2712C56.2693 19.2055 55.9332 18.353 55.261 17.7135C54.5888 17.0741 53.6665 16.7421 52.4943 16.7175H48.1167V23.7389ZM69.3529 32.6785C69.2218 32.4162 69.1152 31.9489 69.0332 31.2767C67.9757 32.3752 66.7133 32.9245 65.2459 32.9245C63.9342 32.9245 62.8562 32.5556 62.0118 31.8178C61.1757 31.0718 60.7576 30.129 60.7576 28.9895C60.7576 27.6041 61.2822 26.5302 62.3316 25.7678C63.3891 24.9972 64.8729 24.6119 66.7829 24.6119H68.9963V23.5667C68.9963 22.7716 68.7586 22.1403 68.2831 21.6731C67.8077 21.1976 67.1067 20.9599 66.1804 20.9599C65.3688 20.9599 64.6884 21.1648 64.1392 21.5747C63.5899 21.9846 63.3153 22.4805 63.3153 23.0626H61.0281C61.0281 22.3986 61.2618 21.7591 61.729 21.1443C62.2045 20.5213 62.8439 20.0294 63.6473 19.6687C64.4589 19.308 65.3483 19.1277 66.3157 19.1277C67.8486 19.1277 69.0496 19.5129 69.9186 20.2835C70.7875 21.0459 71.2384 22.0993 71.2712 23.4438V29.5675C71.2712 30.7889 71.427 31.7604 71.7385 32.4818V32.6785H69.3529ZM65.5779 30.9447C66.2911 30.9447 66.9674 30.7603 67.6068 30.3914C68.2462 30.0225 68.7094 29.5429 68.9963 28.9527V26.2228H67.2133C64.4261 26.2228 63.0325 27.0385 63.0325 28.6698C63.0325 29.383 63.2702 29.9405 63.7457 30.3422C64.2211 30.7439 64.8319 30.9447 65.5779 30.9447ZM78.9935 29.3461L82.0922 19.3736H84.527L79.1779 34.7321C78.35 36.9455 77.0342 38.0521 75.2307 38.0521L74.8003 38.0153L73.9519 37.8554V36.0109L74.5667 36.0601C75.3373 36.0601 75.9357 35.9043 76.362 35.5928C76.7965 35.2813 77.1531 34.7116 77.4318 33.8836L77.936 32.531L73.1895 19.3736H75.6734L78.9935 29.3461Z" fill="#EF536F"/>
<path d="M20.4011 3.55036e-06C19.6963 3.55036e-06 18.9883 0.171519 18.3225 0.512556L3.81658 7.87975C2.99977 8.29458 3.02088 9.69063 3.83606 10.1055L18.4216 17.2014C19.6994 17.8376 21.1287 17.8376 22.4065 17.2014L36.992 10.1055C37.8088 9.71456 37.8088 8.29458 37.0115 7.87975L22.4666 0.512556C21.8131 0.173164 21.1106 -0.00115032 20.4011 3.55036e-06Z" fill="#EF536F"/>
<path d="M20.4011 3.55036e-06C19.6963 3.55036e-06 18.9883 0.171519 18.3225 0.512556L3.81658 7.87975C2.99977 8.29458 3.02088 9.69063 3.83606 10.1055L18.4216 17.2014C19.6994 17.8376 21.1287 17.8376 22.4065 17.2014L36.992 10.1055C37.8088 9.71456 37.8088 8.29458 37.0115 7.87975L22.4666 0.512556C21.8131 0.173164 21.1106 -0.00115032 20.4011 3.55036e-06Z" fill="#EF536F"/>
<path d="M20.4011 3.55036e-06C19.6963 3.55036e-06 18.9883 0.171519 18.3225 0.512556L3.81658 7.87975C2.99977 8.29458 3.02088 9.69063 3.83606 10.1055L18.4216 17.2014C19.6994 17.8376 21.1287 17.8376 22.4065 17.2014L36.992 10.1055C37.8088 9.71456 37.8088 8.29458 37.0115 7.87975L22.4666 0.512556C21.8131 0.173164 21.1106 -0.00115032 20.4011 3.55036e-06Z" fill="#EF536F"/>
<path d="M20.4011 3.55036e-06C19.6963 3.55036e-06 18.9883 0.171519 18.3225 0.512556L3.81658 7.87975C2.99977 8.29458 3.02088 9.69063 3.83606 10.1055L18.4216 17.2014C19.6994 17.8376 21.1287 17.8376 22.4065 17.2014L36.992 10.1055C37.8088 9.71456 37.8088 8.29458 37.0115 7.87975L22.4666 0.512556C21.8131 0.173164 21.1106 -0.00115032 20.4011 3.55036e-06Z" fill="#EF536F"/>
<path d="M20.4011 3.55036e-06C19.6963 3.55036e-06 18.9883 0.171519 18.3225 0.512556L3.81658 7.87975C2.99977 8.29458 3.02088 9.69063 3.83606 10.1055L18.4216 17.2014C19.6994 17.8376 21.1287 17.8376 22.4065 17.2014L36.992 10.1055C37.8088 9.71456 37.8088 8.29458 37.0115 7.87975L22.4666 0.512556C21.8131 0.173164 21.1106 -0.00115032 20.4011 3.55036e-06Z" fill="#EF536F"/>
<path d="M20.4011 3.55036e-06C19.6963 3.55036e-06 18.9883 0.171519 18.3225 0.512556L3.81658 7.87975C2.99977 8.29458 3.02088 9.69063 3.83606 10.1055L18.4216 17.2014C19.6994 17.8376 21.1287 17.8376 22.4065 17.2014L36.992 10.1055C37.8088 9.71456 37.8088 8.29458 37.0115 7.87975L22.4666 0.512556C21.8131 0.173164 21.1106 -0.00115032 20.4011 3.55036e-06Z" fill="#EF536F"/>
<path d="M20.4011 3.55036e-06C19.6963 3.55036e-06 18.9883 0.171519 18.3225 0.512556L3.81658 7.87975C2.99977 8.29458 3.02088 9.69063 3.83606 10.1055L18.4216 17.2014C19.6994 17.8376 21.1287 17.8376 22.4065 17.2014L36.992 10.1055C37.8088 9.71456 37.8088 8.29458 37.0115 7.87975L22.4666 0.512556C21.8131 0.173164 21.1106 -0.00115032 20.4011 3.55036e-06Z" fill="#EF536F"/>
<path d="M40.7805 9.58059H39.6468V12.1088H38.2238V5.20242H40.79C41.6059 5.20242 42.2352 5.38425 42.6779 5.74791C43.1206 6.11157 43.342 6.62544 43.342 7.28952C43.342 7.7607 43.2392 8.1544 43.0336 8.47063C42.8313 8.78369 42.5229 9.03351 42.1087 9.22009L43.6029 12.0424V12.1088H42.0755L40.7805 9.58059ZM39.6468 8.42794H40.7948C41.1521 8.42794 41.4288 8.33781 41.6248 8.15756C41.8209 7.97415 41.9189 7.72275 41.9189 7.40336C41.9189 7.07765 41.8257 6.8215 41.6391 6.63493C41.4557 6.44835 41.1726 6.35507 40.79 6.35507H39.6468V8.42794ZM46.7003 12.2037C45.9477 12.2037 45.3342 11.9728 44.8599 11.5112C44.3887 11.0495 44.1531 10.4344 44.1531 9.66597V9.53315C44.1531 9.0177 44.2527 8.55759 44.4519 8.15282C44.6511 7.74489 44.9326 7.43182 45.2962 7.21362C45.6631 6.99226 46.0805 6.88158 46.5485 6.88158C47.2505 6.88158 47.8024 7.10294 48.204 7.54566C48.6087 7.98838 48.8111 8.61609 48.8111 9.4288V9.98852H45.5429C45.5872 10.3237 45.72 10.5925 45.9414 10.7949C46.1659 10.9973 46.4489 11.0985 46.7904 11.0985C47.3185 11.0985 47.7312 10.9072 48.0285 10.5245L48.702 11.2787C48.4965 11.5697 48.2182 11.7973 47.8672 11.9618C47.5162 12.1231 47.1272 12.2037 46.7003 12.2037ZM46.5438 7.99154C46.2718 7.99154 46.0505 8.08325 45.8797 8.26666C45.7121 8.45007 45.6046 8.71254 45.5571 9.05407H47.464V8.94497C47.4577 8.64139 47.3754 8.40738 47.2173 8.24294C47.0592 8.07534 46.8347 7.99154 46.5438 7.99154ZM52.3734 10.6905C52.3734 10.5229 52.2896 10.3917 52.122 10.2968C51.9576 10.1988 51.692 10.1118 51.3251 10.036C50.1045 9.77981 49.4942 9.2612 49.4942 8.48012C49.4942 8.02475 49.6823 7.64527 50.0586 7.3417C50.4381 7.03496 50.933 6.88158 51.5433 6.88158C52.1948 6.88158 52.7149 7.03496 53.1039 7.3417C53.496 7.64844 53.6921 8.04688 53.6921 8.53704H52.3212C52.3212 8.34097 52.258 8.1797 52.1315 8.05321C52.005 7.92355 51.8074 7.85873 51.5386 7.85873C51.3077 7.85873 51.1291 7.91091 51.0026 8.01526C50.8761 8.11962 50.8128 8.25243 50.8128 8.41371C50.8128 8.5655 50.884 8.68883 51.0263 8.78369C51.1718 8.8754 51.4153 8.95604 51.7568 9.02561C52.0983 9.09202 52.3861 9.16791 52.6201 9.25329C53.3442 9.51892 53.7063 9.97903 53.7063 10.6336C53.7063 11.1016 53.5055 11.4811 53.1039 11.772C52.7023 12.0598 52.1837 12.2037 51.5481 12.2037C51.118 12.2037 50.7354 12.1278 50.4002 11.976C50.0681 11.8211 49.8072 11.6108 49.6175 11.3451C49.4278 11.0763 49.3329 10.787 49.3329 10.4771H50.6326C50.6452 10.7206 50.7354 10.9072 50.903 11.0368C51.0706 11.1665 51.2951 11.2313 51.5765 11.2313C51.839 11.2313 52.0366 11.1823 52.1695 11.0842C52.3054 10.9831 52.3734 10.8518 52.3734 10.6905ZM56.2346 5.71471V6.97645H57.1121V7.98206H56.2346V10.5435C56.2346 10.7332 56.2709 10.8692 56.3437 10.9514C56.4164 11.0337 56.5555 11.0748 56.7611 11.0748C56.9129 11.0748 57.0473 11.0637 57.1643 11.0416V12.0804C56.8955 12.1626 56.6188 12.2037 56.3342 12.2037C55.3728 12.2037 54.8827 11.7183 54.8637 10.7475V7.98206H54.1143V6.97645H54.8637V5.71471H56.2346ZM60.8499 12.1088C60.7867 11.9855 60.7408 11.8321 60.7123 11.6487C60.3803 12.0187 59.9487 12.2037 59.4174 12.2037C58.9146 12.2037 58.4972 12.0582 58.1651 11.7673C57.8363 11.4764 57.6718 11.1095 57.6718 10.6668C57.6718 10.1229 57.8726 9.7055 58.2742 9.41457C58.679 9.12364 59.2624 8.97659 60.0245 8.97343H60.6554V8.67934C60.6554 8.44217 60.5938 8.25243 60.4704 8.11013C60.3503 7.96783 60.1589 7.89668 59.8965 7.89668C59.6656 7.89668 59.4838 7.95202 59.351 8.06269C59.2213 8.17337 59.1565 8.32516 59.1565 8.51806H57.7857C57.7857 8.22081 57.8774 7.94569 58.0608 7.69271C58.2442 7.43973 58.5035 7.24208 58.8387 7.09978C59.1739 6.95432 59.5502 6.88158 59.9676 6.88158C60.6001 6.88158 61.1013 7.04128 61.4713 7.36067C61.8444 7.6769 62.031 8.12278 62.031 8.69831V10.923C62.0342 11.41 62.1022 11.7784 62.235 12.0282V12.1088H60.8499ZM59.7162 11.1554C59.9186 11.1554 60.1052 11.1111 60.2759 11.0226C60.4467 10.9309 60.5732 10.8091 60.6554 10.6573V9.77507H60.1431C59.4569 9.77507 59.0917 10.0122 59.0474 10.4866L59.0427 10.5672C59.0427 10.738 59.1027 10.8787 59.2229 10.9894C59.3431 11.1001 59.5075 11.1554 59.7162 11.1554ZM66.1578 11.5871C65.8194 11.9981 65.3514 12.2037 64.7537 12.2037C64.2035 12.2037 63.7829 12.0456 63.492 11.7294C63.2042 11.4131 63.0572 10.9499 63.0508 10.3395V6.97645H64.4217V10.2921C64.4217 10.8265 64.6652 11.0937 65.1522 11.0937C65.617 11.0937 65.9364 10.9325 66.1103 10.6099V6.97645H67.4859V12.1088H66.1957L66.1578 11.5871ZM71.404 8.26192C71.2174 8.23662 71.053 8.22397 70.9107 8.22397C70.3921 8.22397 70.0521 8.39948 69.8908 8.75049V12.1088H68.52V6.97645H69.8149L69.8529 7.58835C70.128 7.11717 70.5091 6.88158 70.9961 6.88158C71.1478 6.88158 71.2902 6.90214 71.423 6.94325L71.404 8.26192ZM74.8999 12.1088C74.8366 11.9855 74.7908 11.8321 74.7623 11.6487C74.4303 12.0187 73.9986 12.2037 73.4674 12.2037C72.9646 12.2037 72.5472 12.0582 72.2151 11.7673C71.8862 11.4764 71.7218 11.1095 71.7218 10.6668C71.7218 10.1229 71.9226 9.7055 72.3242 9.41457C72.729 9.12364 73.3124 8.97659 74.0745 8.97343H74.7054V8.67934C74.7054 8.44217 74.6437 8.25243 74.5204 8.11013C74.4002 7.96783 74.2089 7.89668 73.9465 7.89668C73.7156 7.89668 73.5338 7.95202 73.401 8.06269C73.2713 8.17337 73.2065 8.32516 73.2065 8.51806H71.8356C71.8356 8.22081 71.9273 7.94569 72.1108 7.69271C72.2942 7.43973 72.5535 7.24208 72.8887 7.09978C73.2239 6.95432 73.6002 6.88158 74.0176 6.88158C74.6501 6.88158 75.1513 7.04128 75.5213 7.36067C75.8944 7.6769 76.081 8.12278 76.081 8.69831V10.923C76.0842 11.41 76.1521 11.7784 76.285 12.0282V12.1088H74.8999ZM73.7662 11.1554C73.9686 11.1554 74.1552 11.1111 74.3259 11.0226C74.4967 10.9309 74.6232 10.8091 74.7054 10.6573V9.77507H74.1931C73.5069 9.77507 73.1417 10.0122 73.0974 10.4866L73.0926 10.5672C73.0926 10.738 73.1527 10.8787 73.2729 10.9894C73.3931 11.1001 73.5575 11.1554 73.7662 11.1554ZM78.3958 6.97645L78.4385 7.56938C78.8053 7.11085 79.297 6.88158 79.9137 6.88158C80.4576 6.88158 80.8624 7.04128 81.128 7.36067C81.3936 7.68006 81.5296 8.15756 81.5359 8.79318V12.1088H80.1651V8.82638C80.1651 8.53545 80.1018 8.32516 79.9753 8.19551C79.8488 8.06269 79.6386 7.99629 79.3445 7.99629C78.9587 7.99629 78.6693 8.16073 78.4764 8.4896V12.1088H77.1056V6.97645H78.3958ZM84.2207 5.71471V6.97645H85.0982V7.98206H84.2207V10.5435C84.2207 10.7332 84.2571 10.8692 84.3298 10.9514C84.4025 11.0337 84.5417 11.0748 84.7472 11.0748C84.899 11.0748 85.0334 11.0637 85.1504 11.0416V12.0804C84.8816 12.1626 84.6049 12.2037 84.3203 12.2037C83.359 12.2037 82.8688 11.7183 82.8498 10.7475V7.98206H82.1004V6.97645H82.8498V5.71471H84.2207Z" fill="#FF7A00" fill-opacity="0.79"/>
</svg>
