<svg width="178" height="94" viewBox="0 0 178 94" fill="none" xmlns="http://www.w3.org/2000/svg">
<path d="M23.9362 48.9944H18.2396C18.0393 48.9944 17.8472 49.0712 17.7056 49.2081C17.5639 49.3449 17.4844 49.5304 17.4844 49.7239V52.1391C17.4844 52.3326 17.5639 52.5181 17.7056 52.6549C17.8472 52.7917 18.0393 52.8686 18.2396 52.8686H19.1836V56.4874H22.9922V52.8686H23.9362C24.1365 52.8686 24.3286 52.7917 24.4702 52.6549C24.6119 52.5181 24.6914 52.3326 24.6914 52.1391V49.7239C24.6914 49.5304 24.6119 49.3449 24.4702 49.2081C24.3286 49.0712 24.1365 48.9944 23.9362 48.9944Z" fill="#EFEAE4"/>
<path d="M29.642 71.0981C26.1532 66.1671 24.3697 60.296 24.5469 54.326C24.5501 54.1882 24.5038 54.0537 24.4159 53.9451C24.328 53.8366 24.204 53.7608 24.0648 53.7306V52.687H18.0485V53.7161H17.9656C17.8807 53.7162 17.7968 53.7332 17.719 53.766C17.6413 53.7989 17.5714 53.8468 17.5137 53.9069C17.456 53.967 17.4118 54.038 17.3837 54.1154C17.3557 54.1927 17.3444 54.2748 17.3507 54.3566C17.8247 60.7385 16.2242 66.4617 12.5492 71.5261C12.3378 71.8172 12.2297 72.1666 12.2413 72.522L12.8992 92.1779C12.915 92.6163 13.1055 93.0319 13.4309 93.3379C13.7563 93.6439 14.1916 93.8167 14.6457 93.8201H28.2537C28.7131 93.8165 29.1528 93.6398 29.4792 93.3277C29.8057 93.0155 29.993 92.5926 30.0013 92.1489L30.2548 73.0647C30.2623 72.3642 30.0485 71.6782 29.642 71.0981Z" fill="#3F3D56"/>
<path opacity="0.2" d="M22.7486 49.7813C22.7486 50.1987 22.5769 50.5991 22.2714 50.8942C21.9658 51.1894 21.5513 51.3552 21.1192 51.3552C20.687 51.3552 20.2726 51.1894 19.967 50.8942C19.6614 50.5991 19.4897 50.1987 19.4897 49.7813" fill="black"/>
<path d="M27.4878 77.6271H25.84C25.6827 76.6411 25.1652 75.742 24.3812 75.0925C23.5972 74.4429 22.5984 74.0859 21.5655 74.0859C20.5326 74.0859 19.5338 74.4429 18.7498 75.0925C17.9658 75.742 17.4483 76.6411 17.291 77.6271H15.6431C15.4677 77.6271 15.2945 77.6638 15.1352 77.7345C14.9759 77.8052 14.8343 77.9084 14.7201 78.0369C14.606 78.1655 14.5219 78.3163 14.4738 78.4792C14.4256 78.642 14.4145 78.813 14.4411 78.9804L16.2311 90.2183H26.509L28.6831 79.0182C28.716 78.8486 28.7098 78.674 28.665 78.507C28.6201 78.3399 28.5377 78.1844 28.4236 78.0516C28.3095 77.9188 28.1665 77.8119 28.0047 77.7385C27.843 77.6652 27.6665 77.6271 27.4878 77.6271Z" fill="#EFEAE4"/>
<path d="M165.963 59.5638L165.568 74.8238L165.079 93.7467H148.416L147.843 71.5762L147.531 59.5638H165.963Z" fill="#E6E6E6"/>
<path d="M157.853 51.4454H155.494V81.6403H157.853V51.4454Z" fill="#EFEAE4"/>
<path d="M164.784 71.0621L164.337 92.7513H149.15L148.627 67.34C149.995 66.9688 151.428 66.8738 152.836 67.0608C154.244 67.2479 155.597 67.713 156.811 68.4273C159.348 69.8769 162.199 70.6572 164.784 71.0621Z" fill="#3F3D56"/>
<path d="M152.91 73.5037H150.745V75.5948H152.91V73.5037Z" fill="#E6E6E6"/>
<path d="M154.384 69.2308H152.219V71.3219H154.384V69.2308Z" fill="#E6E6E6"/>
<path d="M159.033 72.1889L157.294 70.9432L156.005 72.6228L157.743 73.8685L159.033 72.1889Z" fill="#E6E6E6"/>
<path d="M162.944 75.894L161.205 74.6483L159.916 76.3279L161.655 77.5735L162.944 75.894Z" fill="#E6E6E6"/>
<path d="M156.309 78.0304L154.57 76.7847L153.28 78.4643L155.019 79.7099L156.309 78.0304Z" fill="#E6E6E6"/>
<path d="M161.392 68.3944C161.636 68.3944 161.834 68.2031 161.834 67.9671C161.834 67.7312 161.636 67.5399 161.392 67.5399C161.148 67.5399 160.95 67.7312 160.95 67.9671C160.95 68.2031 161.148 68.3944 161.392 68.3944Z" fill="#3F3D56"/>
<path d="M152.398 65.5459C152.642 65.5459 152.84 65.3546 152.84 65.1186C152.84 64.8826 152.642 64.6913 152.398 64.6913C152.153 64.6913 151.955 64.8826 151.955 65.1186C151.955 65.3546 152.153 65.5459 152.398 65.5459Z" fill="#3F3D56"/>
<path d="M159.918 62.5548C160.162 62.5548 160.36 62.3635 160.36 62.1275C160.36 61.8916 160.162 61.7003 159.918 61.7003C159.673 61.7003 159.475 61.8916 159.475 62.1275C159.475 62.3635 159.673 62.5548 159.918 62.5548Z" fill="#3F3D56"/>
<path d="M89.1018 93.6164C115.865 93.6164 137.561 72.6597 137.561 46.8082C137.561 20.9568 115.865 0 89.1018 0C62.3382 0 40.6421 20.9568 40.6421 46.8082C40.6421 72.6597 62.3382 93.6164 89.1018 93.6164Z" fill="#EFEAE4"/>
<path opacity="0.2" d="M89.1019 80.9737C80.9187 80.9736 72.9887 78.2329 66.6631 73.2184C60.3374 68.204 56.0075 61.226 54.4111 53.4736C52.8147 45.7212 54.0505 37.6739 57.9081 30.7029C61.7657 23.732 68.0062 18.2687 75.5665 15.2438C83.1268 12.219 91.539 11.8198 99.3698 14.1144C107.201 16.4089 113.966 21.2551 118.512 27.8273C123.058 34.3995 125.105 42.291 124.303 50.1573C123.5 58.0235 119.899 65.3777 114.113 70.9669C110.836 74.1494 106.938 76.6725 102.645 78.3902C98.352 80.1078 93.7488 80.986 89.1019 80.9737ZM89.1019 14.7499C70.8012 14.7499 55.9125 29.1312 55.9125 46.8082C55.9125 64.4852 70.8012 78.8666 89.1019 78.8666C107.403 78.8666 122.291 64.4852 122.291 46.8082C122.291 29.1312 107.403 14.7499 89.1019 14.7499Z" fill="black"/>
<path d="M89.1017 79.9201C108.034 79.9201 123.382 65.0954 123.382 46.8082C123.382 28.521 108.034 13.6963 89.1017 13.6963C70.1693 13.6963 54.8215 28.521 54.8215 46.8082C54.8215 65.0954 70.1693 79.9201 89.1017 79.9201Z" fill="#3F3D56"/>
<path d="M63.6084 33.5681C63.3484 33.0763 63.1914 32.5398 63.1462 31.9893C63.101 31.4388 63.1686 30.8851 63.3451 30.3598C63.5216 29.8346 63.8035 29.3481 64.1748 28.9281C64.5461 28.5082 64.9994 28.1631 65.5089 27.9125C66.0183 27.6619 66.5739 27.5107 67.1439 27.4677C67.7139 27.4246 68.287 27.4905 68.8306 27.6615C69.3742 27.8326 69.8776 28.1054 70.312 28.4645C70.7463 28.8236 71.1031 29.2618 71.362 29.7542L81.0471 48.1244C81.307 48.6163 81.4641 49.1528 81.5093 49.7033C81.5545 50.2538 81.4869 50.8075 81.3104 51.3327C81.1339 51.858 80.8519 52.3445 80.4806 52.7644C80.1094 53.1843 79.656 53.5295 79.1466 53.7801C78.6371 54.0307 78.0815 54.1818 77.5116 54.2249C76.9416 54.2679 76.3684 54.2021 75.8248 54.031C75.2812 53.86 74.7779 53.5871 74.3435 53.2281C73.9091 52.869 73.5523 52.4307 73.2934 51.9384L63.6084 33.5681Z" fill="#FF6584"/>
<path opacity="0.2" d="M64.6887 35.6171L64.2417 34.7693C66.4725 33.095 69.0922 31.8636 71.9954 30.9553L72.4424 31.8032C69.3002 32.4352 66.627 33.6048 64.6887 35.6171Z" fill="black"/>
<path opacity="0.2" d="M66.7746 39.5738L66.3276 38.7259C68.5585 37.0516 71.1781 35.8203 74.0813 34.912L74.5283 35.7598C71.3862 36.3919 68.7129 37.5615 66.7746 39.5738Z" fill="black"/>
<path opacity="0.2" d="M68.8606 43.5305L68.4136 42.6826C70.6444 41.0083 73.264 39.777 76.1672 38.8687L76.6142 39.7165C73.4721 40.3485 70.7989 41.5182 68.8606 43.5305Z" fill="black"/>
<path opacity="0.2" d="M70.9468 47.4871L70.4998 46.6393C72.7306 44.965 75.3502 43.7336 78.2534 42.8253L78.7004 43.6732C75.5583 44.3052 72.885 45.4748 70.9468 47.4871Z" fill="black"/>
<path opacity="0.2" d="M73.0327 51.4439L72.5857 50.596C74.8165 48.9217 77.4362 47.6903 80.3394 46.782L80.7864 47.6299C77.6442 48.2619 74.971 49.4316 73.0327 51.4439Z" fill="black"/>
<path d="M56.3423 40.4453C56.0824 39.9535 55.9254 39.417 55.8803 38.8665C55.8351 38.3161 55.9028 37.7624 56.0793 37.2372C56.2558 36.712 56.5378 36.2255 56.909 35.8056C57.2803 35.3857 57.7336 35.0406 58.243 34.7901C58.7524 34.5395 59.308 34.3883 59.8779 34.3453C60.4479 34.3022 61.021 34.368 61.5646 34.539C62.1081 34.71 62.6115 34.9828 63.0458 35.3419C63.4802 35.7009 63.837 36.1391 64.096 36.6313L73.781 55.0016C74.3032 55.9946 74.3959 57.1473 74.0387 58.2062C73.6816 59.2652 72.9038 60.144 71.8763 60.6494C70.8489 61.1548 69.6557 61.2455 68.5589 60.9017C67.4622 60.5578 66.5517 59.8075 66.0273 58.8156L56.3423 40.4453Z" fill="#FF6584"/>
<path opacity="0.2" d="M57.4226 42.4943L56.9756 41.6465C59.2064 39.9722 61.8261 38.7408 64.7292 37.8325L65.1763 38.6804C62.0341 39.3124 59.3609 40.482 57.4226 42.4943Z" fill="black"/>
<path opacity="0.2" d="M59.5088 46.451L59.0618 45.6031C61.2926 43.9288 63.9122 42.6975 66.8154 41.7892L67.2624 42.637C64.1203 43.2691 61.4471 44.4387 59.5088 46.451Z" fill="black"/>
<path opacity="0.2" d="M61.5947 50.4077L61.1477 49.5598C63.3785 47.8855 65.9982 46.6542 68.9014 45.7458L69.3484 46.5937C66.2062 47.2257 63.533 48.3954 61.5947 50.4077Z" fill="black"/>
<path opacity="0.2" d="M63.6806 54.3643L63.2336 53.5165C65.4645 51.8422 68.0841 50.6108 70.9873 49.7025L71.4343 50.5504C68.2922 51.1824 65.6189 52.352 63.6806 54.3643Z" fill="black"/>
<path opacity="0.2" d="M65.7666 58.321L65.3196 57.4731C67.5504 55.7988 70.1701 54.5675 73.0732 53.6592L73.5203 54.507C70.3781 55.1391 67.7049 56.3087 65.7666 58.321Z" fill="black"/>
<path d="M112.007 47.8618L112.038 47.8618C113.081 47.8702 114.103 47.5748 114.969 47.014C115.836 46.4533 116.508 45.6532 116.897 44.7182C117.697 42.7652 118.1 40.6818 118.084 38.5816C118.03 29.6924 110.543 22.3998 101.34 22.2769C97.4215 22.2239 93.6041 23.4815 90.5354 25.8366C87.4668 28.1917 85.3356 31.4993 84.5032 35.1987C83.6709 38.8982 84.1885 42.7618 85.9684 46.1347C87.7483 49.5076 90.681 52.1822 94.2692 53.7052C95.2175 54.1107 96.2705 54.23 97.2901 54.0474C98.3098 53.8647 99.2485 53.3887 99.9832 52.6817C101.559 51.1517 103.433 49.938 105.496 49.1107C107.56 48.2835 109.773 47.859 112.007 47.8618Z" fill="#E6E6E6"/>
<path d="M103.281 42.895C106.379 42.895 108.891 40.4691 108.891 37.4767C108.891 34.4842 106.379 32.0583 103.281 32.0583C100.183 32.0583 97.6719 34.4842 97.6719 37.4767C97.6719 40.4691 100.183 42.895 103.281 42.895Z" fill="#F9A825"/>
<path d="M91.0898 36.8674C91.4547 36.8674 91.7506 36.5816 91.7506 36.2291C91.7506 35.8765 91.4547 35.5908 91.0898 35.5908C90.7248 35.5908 90.429 35.8765 90.429 36.2291C90.429 36.5816 90.7248 36.8674 91.0898 36.8674Z" fill="#3F3D56"/>
<path d="M69.2753 37.4694C69.6403 37.4694 69.9361 37.1836 69.9361 36.8311C69.9361 36.4786 69.6403 36.1928 69.2753 36.1928C68.9104 36.1928 68.6145 36.4786 68.6145 36.8311C68.6145 37.1836 68.9104 37.4694 69.2753 37.4694Z" fill="#3F3D56"/>
<path d="M94.6117 30.2523C94.9767 30.2523 95.2726 29.9665 95.2726 29.6139C95.2726 29.2614 94.9767 28.9756 94.6117 28.9756C94.2468 28.9756 93.9509 29.2614 93.9509 29.6139C93.9509 29.9665 94.2468 30.2523 94.6117 30.2523Z" fill="#3F3D56"/>
<path d="M94.5929 48.6506C94.9579 48.6506 95.2538 48.3648 95.2538 48.0123C95.2538 47.6598 94.9579 47.374 94.5929 47.374C94.228 47.374 93.9321 47.6598 93.9321 48.0123C93.9321 48.3648 94.228 48.6506 94.5929 48.6506Z" fill="#3F3D56"/>
<path d="M107.682 28.934C108.047 28.934 108.343 28.6482 108.343 28.2957C108.343 27.9431 108.047 27.6573 107.682 27.6573C107.317 27.6573 107.021 27.9431 107.021 28.2957C107.021 28.6482 107.317 28.934 107.682 28.934Z" fill="#3F3D56"/>
<path d="M64.9875 46.3929C65.3524 46.3929 65.6483 46.1072 65.6483 45.7546C65.6483 45.4021 65.3524 45.1163 64.9875 45.1163C64.6225 45.1163 64.3267 45.4021 64.3267 45.7546C64.3267 46.1072 64.6225 46.3929 64.9875 46.3929Z" fill="#3F3D56"/>
<path d="M69.8178 55.574C70.1828 55.574 70.4786 55.2882 70.4786 54.9357C70.4786 54.5831 70.1828 54.2974 69.8178 54.2974C69.4528 54.2974 69.157 54.5831 69.157 54.9357C69.157 55.2882 69.4528 55.574 69.8178 55.574Z" fill="#3F3D56"/>
<path d="M100.165 58.5479C101.542 58.5479 102.658 57.4697 102.658 56.1398C102.658 54.8098 101.542 53.7316 100.165 53.7316C98.7881 53.7316 97.6719 54.8098 97.6719 56.1398C97.6719 57.4697 98.7881 58.5479 100.165 58.5479Z" fill="#FF6584"/>
<path opacity="0.2" d="M102.035 56.2903C102.035 56.7693 101.838 57.2287 101.487 57.5674C101.136 57.9061 100.661 58.0964 100.165 58.0964C99.6691 58.0964 99.1935 57.9061 98.8428 57.5674C98.4922 57.2287 98.2952 56.7693 98.2952 56.2903" fill="black"/>
<path opacity="0.2" d="M98.2952 55.9893C98.2952 55.5103 98.4922 55.0509 98.8428 54.7122C99.1935 54.3735 99.6691 54.1832 100.165 54.1832C100.661 54.1832 101.136 54.3735 101.487 54.7122C101.838 55.0509 102.035 55.5103 102.035 55.9893" fill="black"/>
<path d="M99.2301 55.5377C99.3161 55.5377 99.3859 55.4366 99.3859 55.3119C99.3859 55.1873 99.3161 55.0862 99.2301 55.0862C99.144 55.0862 99.0742 55.1873 99.0742 55.3119C99.0742 55.4366 99.144 55.5377 99.2301 55.5377Z" fill="#FF6584"/>
<path d="M100.165 55.2367C100.251 55.2367 100.321 55.1356 100.321 55.0109C100.321 54.8862 100.251 54.7852 100.165 54.7852C100.079 54.7852 100.009 54.8862 100.009 55.0109C100.009 55.1356 100.079 55.2367 100.165 55.2367Z" fill="#FF6584"/>
<path d="M100.165 57.1933C100.251 57.1933 100.321 57.0923 100.321 56.9676C100.321 56.8429 100.251 56.7418 100.165 56.7418C100.079 56.7418 100.009 56.8429 100.009 56.9676C100.009 57.0923 100.079 57.1933 100.165 57.1933Z" fill="#FF6584"/>
<path d="M101.1 55.9892C101.186 55.9892 101.256 55.8882 101.256 55.7635C101.256 55.6388 101.186 55.5377 101.1 55.5377C101.014 55.5377 100.944 55.6388 100.944 55.7635C100.944 55.8882 101.014 55.9892 101.1 55.9892Z" fill="#FF6584"/>
<path d="M100.944 57.6448C101.03 57.6448 101.1 57.5438 101.1 57.4191C101.1 57.2944 101.03 57.1933 100.944 57.1933C100.858 57.1933 100.788 57.2944 100.788 57.4191C100.788 57.5438 100.858 57.6448 100.944 57.6448Z" fill="#FF6584"/>
<path d="M99.0743 56.8923C99.1603 56.8923 99.2301 56.7912 99.2301 56.6666C99.2301 56.5419 99.1603 56.4408 99.0743 56.4408C98.9882 56.4408 98.9185 56.5419 98.9185 56.6666C98.9185 56.7912 98.9882 56.8923 99.0743 56.8923Z" fill="#FF6584"/>
<path d="M105.151 52.0761C106.528 52.0761 107.644 50.9979 107.644 49.6679C107.644 48.3379 106.528 47.2598 105.151 47.2598C103.774 47.2598 102.658 48.3379 102.658 49.6679C102.658 50.9979 103.774 52.0761 105.151 52.0761Z" fill="#FF6584"/>
<path opacity="0.2" d="M107.021 49.8184C107.021 50.2974 106.824 50.7568 106.473 51.0955C106.123 51.4342 105.647 51.6245 105.151 51.6245C104.655 51.6245 104.18 51.4342 103.829 51.0955C103.478 50.7568 103.281 50.2974 103.281 49.8184" fill="black"/>
<path opacity="0.2" d="M103.281 49.5174C103.281 49.0384 103.478 48.579 103.829 48.2403C104.18 47.9016 104.655 47.7113 105.151 47.7113C105.647 47.7113 106.123 47.9016 106.473 48.2403C106.824 48.579 107.021 49.0384 107.021 49.5174" fill="black"/>
<path d="M104.216 49.0658C104.302 49.0658 104.372 48.9648 104.372 48.8401C104.372 48.7154 104.302 48.6143 104.216 48.6143C104.13 48.6143 104.061 48.7154 104.061 48.8401C104.061 48.9648 104.13 49.0658 104.216 49.0658Z" fill="#FF6584"/>
<path d="M105.151 48.7648C105.237 48.7648 105.307 48.6637 105.307 48.5391C105.307 48.4144 105.237 48.3133 105.151 48.3133C105.065 48.3133 104.995 48.4144 104.995 48.5391C104.995 48.6637 105.065 48.7648 105.151 48.7648Z" fill="#FF6584"/>
<path d="M105.151 50.7214C105.237 50.7214 105.307 50.6203 105.307 50.4957C105.307 50.371 105.237 50.2699 105.151 50.2699C105.065 50.2699 104.995 50.371 104.995 50.4957C104.995 50.6203 105.065 50.7214 105.151 50.7214Z" fill="#FF6584"/>
<path d="M106.086 49.5174C106.172 49.5174 106.242 49.4163 106.242 49.2916C106.242 49.1669 106.172 49.0659 106.086 49.0659C106 49.0659 105.93 49.1669 105.93 49.2916C105.93 49.4163 106 49.5174 106.086 49.5174Z" fill="#FF6584"/>
<path d="M105.93 51.173C106.016 51.173 106.086 51.0719 106.086 50.9472C106.086 50.8225 106.016 50.7214 105.93 50.7214C105.844 50.7214 105.774 50.8225 105.774 50.9472C105.774 51.0719 105.844 51.173 105.93 51.173Z" fill="#FF6584"/>
<path d="M104.061 50.4204C104.147 50.4204 104.216 50.3193 104.216 50.1946C104.216 50.0699 104.147 49.9689 104.061 49.9689C103.975 49.9689 103.905 50.0699 103.905 50.1946C103.905 50.3193 103.975 50.4204 104.061 50.4204Z" fill="#FF6584"/>
<path d="M110.137 55.3872C111.514 55.3872 112.631 54.309 112.631 52.9791C112.631 51.6491 111.514 50.5709 110.137 50.5709C108.76 50.5709 107.644 51.6491 107.644 52.9791C107.644 54.309 108.76 55.3872 110.137 55.3872Z" fill="#EFEAE4"/>
<path opacity="0.2" d="M112.007 53.1296C112.007 53.6086 111.81 54.068 111.46 54.4067C111.109 54.7454 110.633 54.9357 110.137 54.9357C109.641 54.9357 109.166 54.7454 108.815 54.4067C108.465 54.068 108.268 53.6086 108.268 53.1296" fill="black"/>
<path opacity="0.2" d="M108.268 52.8286C108.268 52.3496 108.465 51.8902 108.815 51.5515C109.166 51.2127 109.641 51.0225 110.137 51.0225C110.633 51.0225 111.109 51.2127 111.46 51.5515C111.81 51.8902 112.007 52.3496 112.007 52.8286" fill="black"/>
<path d="M109.202 52.3771C109.289 52.3771 109.358 52.276 109.358 52.1513C109.358 52.0266 109.289 51.9255 109.202 51.9255C109.116 51.9255 109.047 52.0266 109.047 52.1513C109.047 52.276 109.116 52.3771 109.202 52.3771Z" fill="#EFEAE4"/>
<path d="M110.138 52.076C110.224 52.076 110.293 51.975 110.293 51.8503C110.293 51.7256 110.224 51.6245 110.138 51.6245C110.051 51.6245 109.982 51.7256 109.982 51.8503C109.982 51.975 110.051 52.076 110.138 52.076Z" fill="#EFEAE4"/>
<path d="M110.138 54.0326C110.224 54.0326 110.293 53.9316 110.293 53.8069C110.293 53.6822 110.224 53.5811 110.138 53.5811C110.051 53.5811 109.982 53.6822 109.982 53.8069C109.982 53.9316 110.051 54.0326 110.138 54.0326Z" fill="#EFEAE4"/>
<path d="M111.072 52.8286C111.158 52.8286 111.228 52.7275 111.228 52.6028C111.228 52.4782 111.158 52.3771 111.072 52.3771C110.986 52.3771 110.917 52.4782 110.917 52.6028C110.917 52.7275 110.986 52.8286 111.072 52.8286Z" fill="#EFEAE4"/>
<path d="M110.917 54.4842C111.003 54.4842 111.072 54.3831 111.072 54.2584C111.072 54.1337 111.003 54.0327 110.917 54.0327C110.831 54.0327 110.761 54.1337 110.761 54.2584C110.761 54.3831 110.831 54.4842 110.917 54.4842Z" fill="#EFEAE4"/>
<path d="M109.047 53.7316C109.133 53.7316 109.203 53.6305 109.203 53.5058C109.203 53.3812 109.133 53.2801 109.047 53.2801C108.961 53.2801 108.891 53.3812 108.891 53.5058C108.891 53.6305 108.961 53.7316 109.047 53.7316Z" fill="#EFEAE4"/>
<path d="M97.6718 55.6882C99.0487 55.6882 100.165 54.6101 100.165 53.2801C100.165 51.9501 99.0487 50.8719 97.6718 50.8719C96.2949 50.8719 95.1787 51.9501 95.1787 53.2801C95.1787 54.6101 96.2949 55.6882 97.6718 55.6882Z" fill="#EFEAE4"/>
<path opacity="0.2" d="M99.5417 53.4306C99.5417 53.9096 99.3447 54.369 98.994 54.7077C98.6433 55.0464 98.1677 55.2367 97.6718 55.2367C97.1759 55.2367 96.7003 55.0464 96.3497 54.7077C95.999 54.369 95.802 53.9096 95.802 53.4306" fill="black"/>
<path opacity="0.2" d="M95.802 53.1296C95.802 52.6506 95.999 52.1912 96.3497 51.8525C96.7003 51.5138 97.1759 51.3235 97.6718 51.3235C98.1677 51.3235 98.6433 51.5138 98.994 51.8525C99.3447 52.1912 99.5417 52.6506 99.5417 53.1296" fill="black"/>
<path d="M96.7369 52.6781C96.8229 52.6781 96.8927 52.577 96.8927 52.4523C96.8927 52.3276 96.8229 52.2266 96.7369 52.2266C96.6508 52.2266 96.5811 52.3276 96.5811 52.4523C96.5811 52.577 96.6508 52.6781 96.7369 52.6781Z" fill="#EFEAE4"/>
<path d="M97.6719 52.3771C97.758 52.3771 97.8277 52.276 97.8277 52.1513C97.8277 52.0266 97.758 51.9255 97.6719 51.9255C97.5859 51.9255 97.5161 52.0266 97.5161 52.1513C97.5161 52.276 97.5859 52.3771 97.6719 52.3771Z" fill="#EFEAE4"/>
<path d="M97.6719 54.3337C97.758 54.3337 97.8277 54.2326 97.8277 54.1079C97.8277 53.9832 97.758 53.8821 97.6719 53.8821C97.5859 53.8821 97.5161 53.9832 97.5161 54.1079C97.5161 54.2326 97.5859 54.3337 97.6719 54.3337Z" fill="#EFEAE4"/>
<path d="M98.607 53.1296C98.693 53.1296 98.7628 53.0285 98.7628 52.9038C98.7628 52.7791 98.693 52.678 98.607 52.678C98.5209 52.678 98.4512 52.7791 98.4512 52.9038C98.4512 53.0285 98.5209 53.1296 98.607 53.1296Z" fill="#EFEAE4"/>
<path d="M98.451 54.7852C98.537 54.7852 98.6068 54.6841 98.6068 54.5594C98.6068 54.4348 98.537 54.3337 98.451 54.3337C98.3649 54.3337 98.2952 54.4348 98.2952 54.5594C98.2952 54.6841 98.3649 54.7852 98.451 54.7852Z" fill="#EFEAE4"/>
<path d="M96.5811 54.0326C96.6672 54.0326 96.7369 53.9316 96.7369 53.8069C96.7369 53.6822 96.6672 53.5811 96.5811 53.5811C96.495 53.5811 96.4253 53.6822 96.4253 53.8069C96.4253 53.9316 96.495 54.0326 96.5811 54.0326Z" fill="#EFEAE4"/>
<path d="M103.281 56.7418C104.658 56.7418 105.775 55.6637 105.775 54.3337C105.775 53.0037 104.658 51.9255 103.281 51.9255C101.905 51.9255 100.788 53.0037 100.788 54.3337C100.788 55.6637 101.905 56.7418 103.281 56.7418Z" fill="#EFEAE4"/>
<path opacity="0.2" d="M105.151 54.4842C105.151 54.7214 105.103 54.9562 105.009 55.1754C104.915 55.3945 104.777 55.5936 104.604 55.7613C104.43 55.929 104.224 56.062 103.997 56.1528C103.77 56.2436 103.527 56.2903 103.281 56.2903C103.036 56.2903 102.793 56.2436 102.566 56.1528C102.339 56.062 102.133 55.929 101.959 55.7613C101.786 55.5936 101.648 55.3945 101.554 55.1754C101.46 54.9562 101.412 54.7214 101.412 54.4842" fill="black"/>
<path opacity="0.2" d="M101.412 54.1832C101.412 53.946 101.46 53.7111 101.554 53.492C101.648 53.2729 101.786 53.0738 101.959 52.9061C102.133 52.7384 102.339 52.6053 102.566 52.5146C102.793 52.4238 103.036 52.3771 103.281 52.3771C103.527 52.3771 103.77 52.4238 103.997 52.5146C104.224 52.6053 104.43 52.7384 104.604 52.9061C104.777 53.0738 104.915 53.2729 105.009 53.492C105.103 53.7111 105.151 53.946 105.151 54.1832" fill="black"/>
<path d="M102.347 53.7316C102.433 53.7316 102.502 53.6305 102.502 53.5058C102.502 53.3812 102.433 53.2801 102.347 53.2801C102.26 53.2801 102.191 53.3812 102.191 53.5058C102.191 53.6305 102.26 53.7316 102.347 53.7316Z" fill="#EFEAE4"/>
<path d="M103.281 53.4306C103.367 53.4306 103.437 53.3295 103.437 53.2048C103.437 53.0801 103.367 52.9791 103.281 52.9791C103.195 52.9791 103.125 53.0801 103.125 53.2048C103.125 53.3295 103.195 53.4306 103.281 53.4306Z" fill="#EFEAE4"/>
<path d="M103.281 55.3872C103.367 55.3872 103.437 55.2861 103.437 55.1614C103.437 55.0367 103.367 54.9357 103.281 54.9357C103.195 54.9357 103.125 55.0367 103.125 55.1614C103.125 55.2861 103.195 55.3872 103.281 55.3872Z" fill="#EFEAE4"/>
<path d="M104.216 54.1832C104.302 54.1832 104.372 54.0821 104.372 53.9574C104.372 53.8327 104.302 53.7316 104.216 53.7316C104.13 53.7316 104.061 53.8327 104.061 53.9574C104.061 54.0821 104.13 54.1832 104.216 54.1832Z" fill="#EFEAE4"/>
<path d="M104.061 55.8387C104.147 55.8387 104.216 55.7377 104.216 55.613C104.216 55.4883 104.147 55.3872 104.061 55.3872C103.975 55.3872 103.905 55.4883 103.905 55.613C103.905 55.7377 103.975 55.8387 104.061 55.8387Z" fill="#EFEAE4"/>
<path d="M102.191 55.0862C102.277 55.0862 102.347 54.9852 102.347 54.8605C102.347 54.7358 102.277 54.6347 102.191 54.6347C102.105 54.6347 102.035 54.7358 102.035 54.8605C102.035 54.9852 102.105 55.0862 102.191 55.0862Z" fill="#EFEAE4"/>
<path d="M107.177 59.3004C108.554 59.3004 109.67 58.2222 109.67 56.8923C109.67 55.5623 108.554 54.4841 107.177 54.4841C105.8 54.4841 104.684 55.5623 104.684 56.8923C104.684 58.2222 105.8 59.3004 107.177 59.3004Z" fill="#FF6584"/>
<path opacity="0.2" d="M109.047 57.0428C109.047 57.5219 108.85 57.9812 108.499 58.32C108.148 58.6587 107.673 58.8489 107.177 58.8489C106.681 58.8489 106.205 58.6587 105.855 58.32C105.504 57.9812 105.307 57.5219 105.307 57.0428" fill="black"/>
<path opacity="0.2" d="M105.307 56.7418C105.307 56.2628 105.504 55.8034 105.855 55.4647C106.205 55.126 106.681 54.9357 107.177 54.9357C107.673 54.9357 108.148 55.126 108.499 55.4647C108.85 55.8034 109.047 56.2628 109.047 56.7418" fill="black"/>
<path d="M106.242 56.2903C106.328 56.2903 106.398 56.1892 106.398 56.0645C106.398 55.9398 106.328 55.8387 106.242 55.8387C106.156 55.8387 106.086 55.9398 106.086 56.0645C106.086 56.1892 106.156 56.2903 106.242 56.2903Z" fill="#FF6584"/>
<path d="M107.177 55.9892C107.263 55.9892 107.333 55.8882 107.333 55.7635C107.333 55.6388 107.263 55.5377 107.177 55.5377C107.091 55.5377 107.021 55.6388 107.021 55.7635C107.021 55.8882 107.091 55.9892 107.177 55.9892Z" fill="#FF6584"/>
<path d="M107.177 57.9459C107.263 57.9459 107.333 57.8448 107.333 57.7202C107.333 57.5955 107.263 57.4944 107.177 57.4944C107.091 57.4944 107.021 57.5955 107.021 57.7202C107.021 57.8448 107.091 57.9459 107.177 57.9459Z" fill="#FF6584"/>
<path d="M108.112 56.7418C108.198 56.7418 108.267 56.6407 108.267 56.516C108.267 56.3914 108.198 56.2903 108.112 56.2903C108.026 56.2903 107.956 56.3914 107.956 56.516C107.956 56.6407 108.026 56.7418 108.112 56.7418Z" fill="#FF6584"/>
<path d="M107.956 58.3974C108.042 58.3974 108.112 58.2963 108.112 58.1716C108.112 58.0469 108.042 57.9459 107.956 57.9459C107.87 57.9459 107.8 58.0469 107.8 58.1716C107.8 58.2963 107.87 58.3974 107.956 58.3974Z" fill="#FF6584"/>
<path d="M106.086 57.6448C106.172 57.6448 106.242 57.5438 106.242 57.4191C106.242 57.2944 106.172 57.1933 106.086 57.1933C106 57.1933 105.93 57.2944 105.93 57.4191C105.93 57.5438 106 57.6448 106.086 57.6448Z" fill="#FF6584"/>
<path d="M75.1156 48.3496C75.4806 48.3496 75.7765 48.0638 75.7765 47.7113C75.7765 47.3588 75.4806 47.073 75.1156 47.073C74.7507 47.073 74.4548 47.3588 74.4548 47.7113C74.4548 48.0638 74.7507 48.3496 75.1156 48.3496Z" fill="#3F3D56"/>
<path d="M93.0782 70.8801L77.2075 66.6288L77.8155 64.4475L93.6861 68.699L93.0782 70.8801Z" fill="#F9A825"/>
<path d="M90.7516 70.1512C85.3167 71.1561 79.7339 71.1561 74.2991 70.1512V67.89C79.7461 68.762 85.3046 68.762 90.7516 67.89V70.1512Z" fill="#F9A825"/>
<path d="M92.443 63.3677C87.0081 64.3727 81.4253 64.3727 75.9905 63.3677V61.1066C81.4375 61.9786 86.996 61.9786 92.443 61.1066V63.3677Z" fill="#F9A825"/>
<path d="M98.1322 66.0811C92.6974 67.0861 87.1145 67.0861 81.6797 66.0811V63.8199C87.1267 64.692 92.6852 64.692 98.1322 63.8199V66.0811Z" fill="#F9A825"/>
<path d="M99.516 68.6437C94.0812 69.6487 88.4983 69.6487 83.0635 68.6437V66.3826C88.5105 67.2546 94.069 67.2546 99.516 66.3826V68.6437Z" fill="#F9A825"/>
<path d="M104.341 71.9922L88.1089 74.6258L87.7324 72.395L103.964 69.7614L104.341 71.9922Z" fill="#F9A825"/>
<path d="M101.916 72.2821C97.4159 75.4155 92.3439 77.7005 86.9665 79.0171L86.0034 76.9625C91.3338 75.5208 96.3838 73.2457 100.953 70.2275L101.916 72.2821Z" fill="#F9A825"/>
<path d="M100.564 65.426C96.0636 68.5594 90.9916 70.8443 85.6142 72.1609L84.6511 70.1063C89.9815 68.6646 95.0315 66.3895 99.6007 63.3714L100.564 65.426Z" fill="#F9A825"/>
<path d="M106.889 65.5627C102.389 68.696 97.3168 70.981 91.9394 72.2976L90.9763 70.243C96.3067 68.8013 101.357 66.5262 105.926 63.5081L106.889 65.5627Z" fill="#F9A825"/>
<path d="M109.238 67.3247C104.737 70.458 99.6655 72.743 94.288 74.0596L93.325 72.005C98.6553 70.5633 103.705 68.2882 108.275 65.2701L109.238 67.3247Z" fill="#F9A825"/>
<path d="M89.5694 62.9127H88.7903V63.6652H89.5694V62.9127Z" fill="#00BF71"/>
<path d="M91.9065 76.0069H91.1274V76.7595H91.9065V76.0069Z" fill="#00BF71"/>
<path d="M79.441 62.9127H78.6619V63.6652H79.441V62.9127Z" fill="#00BF71"/>
<path d="M97.5162 72.2442H96.7371V72.9967H97.5162V72.2442Z" fill="#00BF71"/>
<path d="M97.9834 67.8795H97.2043V68.632H97.9834V67.8795Z" fill="#00BF71"/>
<path d="M85.1316 65.819L84.229 65.2275L83.8791 65.7257L84.7817 66.3172L85.1316 65.819Z" fill="#00BF71"/>
<path d="M94.3247 67.4746L93.4221 66.8831L93.0722 67.3812L93.9748 67.9728L94.3247 67.4746Z" fill="#00BF71"/>
<path d="M83.1057 70.3342L82.2031 69.7427L81.8532 70.2409L82.7558 70.8324L83.1057 70.3342Z" fill="#00BF71"/>
<path d="M88.8197 70.2905L89.4321 69.4186L88.9164 69.0806L88.304 69.9525L88.8197 70.2905Z" fill="#00BF71"/>
<path d="M93.027 71.344L93.6394 70.4722L93.1236 70.1342L92.5113 71.006L93.027 71.344Z" fill="#00BF71"/>
<path d="M104.247 67.7316L104.859 66.8598L104.344 66.5218L103.731 67.3936L104.247 67.7316Z" fill="#00BF71"/>
<path d="M178 93.5662H0V94H178V93.5662Z" fill="#3F3D56"/>
</svg>
